<svg width="72" height="72" viewBox="0 0 72 72" fill="none" xmlns="http://www.w3.org/2000/svg">
<rect width="72" height="72" rx="36" fill="#00DFFF" fill-opacity="0.11"/>
<path d="M19.334 29.3337V26.0003C19.334 25.1163 19.6852 24.2684 20.3103 23.6433C20.9354 23.0182 21.7833 22.667 22.6673 22.667H49.334C50.218 22.667 51.0659 23.0182 51.691 23.6433C52.3161 24.2684 52.6673 25.1163 52.6673 26.0003V46.0003C52.6673 46.8844 52.3161 47.7322 51.691 48.3573C51.0659 48.9825 50.218 49.3337 49.334 49.3337H39.334" stroke="white" stroke-width="3.33333" stroke-linecap="round" stroke-linejoin="round"/>
<path d="M19.334 36C22.7463 36.3621 25.9313 37.8832 28.3577 40.3096C30.7841 42.7361 32.3052 45.921 32.6673 49.3333" stroke="white" stroke-width="3.33333" stroke-linecap="round" stroke-linejoin="round"/>
<path d="M19.334 42.667C20.9884 42.9751 22.5108 43.7769 23.7007 44.9669C24.8907 46.1569 25.6925 47.6792 26.0007 49.3337" stroke="white" stroke-width="3.33333" stroke-linecap="round" stroke-linejoin="round"/>
<path d="M19.334 49.333H19.3507" stroke="white" stroke-width="3.33333" stroke-linecap="round" stroke-linejoin="round"/>
</svg>
