<svg width="32" height="170" viewBox="0 0 32 170" fill="none" xmlns="http://www.w3.org/2000/svg">
<g opacity="0.87">
<path d="M5.08594 23.8952C7.36578 25.214 10.0127 25.8327 12.8359 25.8327C21.207 25.8327 28.0281 19.1967 28.3259 10.8984L30.9193 5.81185L26.5868 6.45768C25.676 5.6538 24.4795 5.16602 23.1693 5.16602C19.8466 5.16602 17.3577 8.41758 18.1588 11.5986C13.5694 11.8947 9.4113 9.06853 7.00656 5.30194C5.41075 10.7226 6.88948 17.251 10.8984 21.2737C10.8984 21.2737 8.96094 23.8952 5.08594 23.8952Z" fill="white"/>
<path d="M12.7562 69.8415C12.7562 69.3569 12.9005 68.9357 13.133 68.5552C13.2925 68.2943 13.1833 67.9239 12.895 67.842C10.5083 67.1645 8.83463 66.0749 8.83463 62.4611C8.83463 61.5215 9.13271 60.6381 9.65669 59.8693C9.78682 59.6784 9.85038 59.5916 9.86785 59.4963C9.88538 59.4007 9.85647 59.2965 9.80188 59.0699C9.6102 58.2745 9.59486 57.4366 9.80905 56.655C9.87945 56.3981 10.0304 56.2482 10.3035 56.2771C10.6578 56.3147 11.2713 56.4824 12.1813 57.0695C12.5388 57.3002 12.7176 57.4155 12.875 57.4413C13.0325 57.4671 13.2429 57.4131 13.664 57.305C14.2396 57.1572 14.8328 57.0778 15.5013 57.0778C16.1698 57.0778 16.763 57.1572 17.3386 57.305C17.7597 57.4131 17.9701 57.4671 18.1276 57.4413C18.285 57.4155 18.4638 57.3002 18.8213 57.0695C19.7313 56.4824 20.3448 56.3147 20.699 56.2771C20.9722 56.2482 21.1232 56.3981 21.1936 56.655C21.4077 57.4366 21.3924 58.2745 21.2008 59.0699C21.1461 59.2965 21.1172 59.4007 21.1348 59.4963C21.1522 59.5916 21.2158 59.6784 21.3458 59.8693C21.8698 60.6381 22.168 61.5215 22.168 62.4611C22.168 66.0749 20.4942 67.1645 18.1076 67.842C17.8193 67.9239 17.7101 68.2943 17.8696 68.5552C18.1021 68.9357 18.2464 69.3569 18.2464 69.8415V76.2029C24.8493 74.9223 29.8346 69.1095 29.8346 62.1321C29.8346 54.2161 23.4174 47.7988 15.5013 47.7988C7.58522 47.7988 1.16797 54.2161 1.16797 62.1321C1.16797 69.1095 6.15332 74.9223 12.7562 76.2029V72.47C12.6811 72.4612 12.5922 72.4481 12.491 72.4289C12.2028 72.3743 11.8156 72.2693 11.3642 72.0691C10.4545 71.6656 9.31814 70.8901 8.2171 69.4227C7.88565 68.9809 7.97507 68.3541 8.41683 68.0227C8.85861 67.6912 9.48542 67.7807 9.81687 68.2224C10.7158 69.4205 11.5821 69.9779 12.175 70.2408C12.4109 70.3455 12.6092 70.406 12.7562 70.4409V69.8415Z" fill="white"/>
<path fill-rule="evenodd" clip-rule="evenodd" d="M9.76249 96.473C11.9745 96.0221 14.3554 95.7773 16.8335 95.7773C19.3116 95.7773 21.6926 96.0221 23.9044 96.473L24.0742 96.5076C26.6003 97.0217 28.2835 97.3643 29.734 99.2292C31.169 101.074 31.1682 103.214 31.1668 106.527V109.694C31.1682 113.008 31.169 115.147 29.734 116.992C28.2835 118.857 26.6003 119.2 24.0742 119.714L23.9044 119.748C21.6926 120.199 19.3116 120.444 16.8335 120.444C14.3554 120.444 11.9745 120.199 9.76249 119.748L9.59278 119.714C7.06661 119.2 5.3834 118.857 3.93294 116.992C2.49803 115.147 2.49883 113.008 2.50007 109.694V106.527C2.49883 103.214 2.49803 101.074 3.93294 99.2292C5.3834 97.3643 7.06661 97.0217 9.59278 96.5076L9.76249 96.473ZM15.8928 103.114C16.5842 103.404 17.424 103.873 18.4508 104.446C18.586 104.522 18.7219 104.597 18.8579 104.672C19.5291 105.042 20.2042 105.415 20.8267 105.863C21.3862 106.265 21.917 106.763 22.0927 107.491C22.1914 107.899 22.1914 108.323 22.0927 108.731C21.917 109.458 21.3862 109.956 20.8267 110.359C20.2042 110.806 19.529 111.179 18.8578 111.55C18.7218 111.625 18.586 111.7 18.4508 111.775C17.424 112.349 16.5843 112.817 15.8928 113.108C14.7688 113.579 13.577 113.618 12.5973 112.815C11.9842 112.313 11.7675 111.593 11.6724 110.868C11.4426 109.117 11.4425 107.106 11.6724 105.353C11.7675 104.628 11.9842 103.909 12.5973 103.406C13.577 102.604 14.7688 102.642 15.8928 103.114Z" fill="white"/>
<path d="M10.668 150.223H4.66797V166.889H10.668V150.223Z" fill="white"/>
<path d="M10.668 143.223C10.668 144.88 9.32482 146.223 7.66797 146.223C6.01112 146.223 4.66797 144.88 4.66797 143.223C4.66797 141.566 6.01112 140.223 7.66797 140.223C9.32482 140.223 10.668 141.566 10.668 143.223Z" fill="white"/>
<path d="M20.6681 150.223H14.668V166.889H20.6681V158.556C20.6681 157.268 21.7126 156.223 23.0013 156.223C24.29 156.223 25.3346 157.268 25.3346 158.556V166.889H31.3329L31.3348 156.223C31.3348 152.909 28.1832 150.223 25.0637 150.223C23.2878 150.223 21.7036 151.093 20.6681 152.455V150.223Z" fill="white"/>
</g>
</svg>
