<svg width="34" height="26" viewBox="0 0 34 26" fill="none" xmlns="http://www.w3.org/2000/svg">
<path fill-rule="evenodd" clip-rule="evenodd" d="M6.26198 2.64634C5.50532 2.70801 5.07198 2.82467 4.74198 2.99134C4.03637 3.35126 3.46285 3.92536 3.10365 4.63134C2.93698 4.95967 2.82032 5.39467 2.75865 6.15134C2.69532 6.92134 2.69532 7.91301 2.69532 9.33301V16.6663C2.69532 18.088 2.69532 19.078 2.75865 19.8497C2.82032 20.6047 2.93532 21.0397 3.10365 21.3697C3.46198 22.0747 4.03698 22.648 4.74198 23.008C5.07198 23.1747 5.50532 23.2913 6.26198 23.353C7.03365 23.4147 8.02365 23.4163 9.44532 23.4163H24.5553C25.977 23.4163 26.967 23.4163 27.7387 23.353C28.4937 23.2897 28.9286 23.1747 29.2586 23.008C29.964 22.6485 30.5375 22.075 30.897 21.3697C31.0637 21.0397 31.1803 20.6047 31.242 19.848C31.3053 19.078 31.3053 18.0863 31.3053 16.6663V9.33301C31.3053 7.91301 31.3053 6.92134 31.242 6.14967C31.1803 5.39467 31.0653 4.95967 30.897 4.63134C30.5378 3.92536 29.9643 3.35126 29.2586 2.99134C28.9286 2.82467 28.4937 2.70801 27.737 2.64634C26.967 2.58467 25.977 2.58301 24.5553 2.58301H9.44365C8.02365 2.58301 7.03365 2.58301 6.26198 2.64634ZM9.39032 0.0830078H24.6087C25.9637 0.0830078 27.057 0.0830082 27.942 0.154675C28.852 0.229675 29.652 0.388008 30.392 0.764674C31.5688 1.36363 32.5256 2.31991 33.1253 3.49634C33.502 4.23634 33.6587 5.03634 33.7337 5.94634C33.8053 6.83134 33.8053 7.92467 33.8053 9.27967V16.7197C33.8053 18.0747 33.8053 19.168 33.7337 20.053C33.6587 20.963 33.5003 21.763 33.1236 22.503C32.5251 23.6796 31.5695 24.6364 30.3937 25.2363C29.652 25.613 28.852 25.7697 27.942 25.8447C27.057 25.9163 25.9637 25.9163 24.6087 25.9163H9.39198C8.03698 25.9163 6.94198 25.9163 6.05865 25.8447C5.14698 25.7697 4.34698 25.6113 3.60698 25.2347C2.4308 24.6354 1.47455 23.6792 0.875316 22.503C0.498649 21.763 0.341982 20.963 0.266982 20.053C0.193649 19.168 0.195316 18.0747 0.195316 16.7197V9.27967C0.195316 7.92467 0.195316 6.83134 0.266982 5.94634C0.341982 5.03634 0.498649 4.23634 0.875316 3.49634C1.47427 2.31954 2.43055 1.36268 3.60698 0.763008C4.34698 0.386341 5.14698 0.229675 6.05865 0.154675C6.94365 0.0830082 8.03532 0.0830078 9.39032 0.0830078ZM11.192 9.49301C11.192 6.90634 14.0136 5.30967 16.232 6.63967L22.0753 10.1463C24.2303 11.438 24.2303 14.5613 22.0753 15.853L16.232 19.3597C14.0153 20.6913 11.192 19.093 11.192 16.5063V9.49301ZM14.947 8.78301C14.8213 8.70748 14.6778 8.66667 14.5312 8.66474C14.3846 8.66281 14.2401 8.69984 14.1124 8.77205C13.9848 8.84425 13.8786 8.94904 13.8048 9.0757C13.7309 9.20237 13.692 9.34637 13.692 9.49301V16.5063C13.692 17.1497 14.3936 17.548 14.947 17.2163L20.7903 13.7097C20.9128 13.636 21.0142 13.532 21.0846 13.4075C21.155 13.2831 21.192 13.1426 21.192 12.9997C21.192 12.8567 21.155 12.7162 21.0846 12.5918C21.0142 12.4674 20.9128 12.3633 20.7903 12.2897L14.947 8.78301Z" fill="white"/>
</svg>
